<svg width="80" height="81" xmlns="http://www.w3.org/2000/svg"><path d="M52.87 0c13.597.08 27.035 11.299 27.035 27.65 0 0 .4 19.772-.44 25.263-1.88 12.492-11.278 21.125-24.235 23.313-11.678 2.268-18.597 3.58-20.837 4.018-.96.199-5.199.756-7.038.756C13.118 81 .2 70.417 0 53.35c0 0 0-18.22.16-23.035.48-12.452 9.158-22.517 25.675-25.74 0 0 20.196-3.899 21.036-4.058C48.791.16 50.911 0 52.87 0zm9.518 14.521l-31.994 6.167V33.1l-12.797 2.467v30.952l31.994-6.167V47.94l12.797-2.467V14.521zm-12.797 14.88V47.94l-19.197 3.7V33.1l19.197-3.7z" fill="#0C132C"/></svg>
